<svg width="16" height="16" viewBox="0 0 16 16" fill="none" xmlns="http://www.w3.org/2000/svg">
<path d="M14.5423 14.6423H1.18035H0.444336V15.5555H15.2783V14.6423H14.5423Z" fill="#205598"/>
<path d="M7.0143 13.4611H5.12427H3.43416H1.53959H1.18066V14.3743H14.5471V13.4611H14.1882H12.2936H10.6035H8.70896H7.0143Z" fill="#205598"/>
<path d="M7.01435 13.193V12.3253H6.78718H5.3424H5.11523V13.193H7.01435Z" fill="#205598"/>
<path d="M6.76409 12.0572L6.62779 7.57745H5.50105L5.36475 12.0572H6.76409Z" fill="#205598"/>
<path d="M3.42972 12.3253H3.20256H1.76232H1.53516V13.193H3.42972V12.3253Z" fill="#205598"/>
<path d="M3.17962 12.0572L3.04332 7.57745H1.91657L1.78027 12.0572H2.56627H3.17962Z" fill="#205598"/>
<path d="M10.376 12.3253H8.93127H8.7041V13.193H10.5987V12.3253H10.376Z" fill="#205598"/>
<path d="M10.3491 12.0572L10.2128 7.57745H9.08601L8.94971 12.0572H10.3491Z" fill="#205598"/>
<path d="M13.961 12.3253H12.5162H12.2891V13.193H14.1836V12.3253H13.961Z" fill="#205598"/>
<path d="M13.9384 12.0572L13.8021 7.57745H12.6754L12.5391 12.0572H13.9384Z" fill="#205598"/>
<path d="M13.77 7.30485H14.188V6.43707H12.2935V7.30485H12.7114H13.77Z" fill="#205598"/>
<path d="M9.12243 7.30485H10.1856H10.6036V6.43707H8.70898V7.30485H9.12243Z" fill="#205598"/>
<path d="M7.01405 7.30485V6.43707H5.12402V7.30485H5.54201H6.60515H7.01405Z" fill="#205598"/>
<path d="M3.42972 7.30485V6.43707H1.53516V7.30485H1.95314H3.01628H3.42972Z" fill="#205598"/>
<path d="M7.0143 6.16905H8.70442H10.599H11.4032V5.08319H10.2219H1.18066V6.16905H1.53959H3.43416H5.12427H7.0143Z" fill="#205598"/>
<path d="M1.18066 4.81517H10.2264L10.0492 3.98828H7.8639H1.44418L1.18066 4.81517Z" fill="#205598"/>
<path d="M1.44385 3.7202H7.86357H10.0489H11.7572L10.5214 1.62118L9.18568 2.65706C9.1039 2.72067 8.58142 1.09415 8.58142 1.09415L6.80952 1.53031L6.25978 0.444458L5.00582 1.2986L5.48287 1.74839C5.48287 1.74839 3.26572 2.96146 3.16577 2.96146C3.13397 2.96146 3.0749 2.83425 3.00675 2.65706L1.44385 3.7202Z" fill="#205598"/>
</svg>
