<svg width="24" height="24" viewBox="0 0 24 24" fill="none" xmlns="http://www.w3.org/2000/svg">
<path d="M18.4268 4.88892H21.1334V2.18225" stroke="white" stroke-linecap="round" stroke-linejoin="round"/>
<path d="M5.96899 8.67993V11.3866C5.96899 12.2044 7.38233 12.8799 9.21788 12.9955" stroke="white" stroke-linecap="round" stroke-linejoin="round"/>
<path d="M9.7601 7.60001C11.8539 7.60001 13.5512 6.87175 13.5512 5.97335C13.5512 5.07495 11.8539 4.34668 9.7601 4.34668C7.66633 4.34668 5.96899 5.07495 5.96899 5.97335C5.96899 6.87175 7.66633 7.60001 9.7601 7.60001Z" stroke="white" stroke-linecap="round" stroke-linejoin="round"/>
<path d="M13.5513 8.13771V5.97327" stroke="white" stroke-linecap="round" stroke-linejoin="round"/>
<path d="M5.96899 5.97327V8.67993C5.96899 9.52882 7.48455 10.2266 9.42233 10.2977" stroke="white" stroke-linecap="round" stroke-linejoin="round"/>
<path d="M1.5779 16.5467C0.911233 15.08 0.560121 13.5022 0.555677 11.9244C0.551233 9.00887 1.68901 6.08887 3.92012 3.85776C6.12011 1.66665 9.02233 0.586647 11.929 0.555536C15.1068 0.524425 17.4312 1.49331 19.5112 3.2622C19.8801 3.57331 21.1379 4.88887 21.1379 4.88887" stroke="white" stroke-linecap="round" stroke-linejoin="round"/>
<path d="M22.2758 7.30664C22.9424 8.77331 23.2935 10.3511 23.298 11.9289C23.3024 14.8444 22.1647 17.7644 19.9335 19.9955C17.738 22.1911 14.8358 23.2711 11.9291 23.3022C8.75133 23.3333 6.42688 22.3644 4.34688 20.5955C3.97799 20.2844 2.72021 18.9689 2.72021 18.9689" stroke="white" stroke-linecap="round" stroke-linejoin="round"/>
<path d="M5.43133 18.9689H2.72021V21.6755" stroke="white" stroke-linecap="round" stroke-linejoin="round"/>
<path d="M14.6356 13.0133C16.7294 13.0133 18.4267 12.2851 18.4267 11.3867C18.4267 10.4883 16.7294 9.76001 14.6356 9.76001C12.5418 9.76001 10.8445 10.4883 10.8445 11.3867C10.8445 12.2851 12.5418 13.0133 14.6356 13.0133Z" stroke="white" stroke-linecap="round" stroke-linejoin="round"/>
<path d="M10.8445 11.3866V14.0933C10.8445 14.991 12.5423 15.7199 14.6356 15.7199C16.7289 15.7199 18.4267 14.991 18.4267 14.0933V11.3866" stroke="white" stroke-linecap="round" stroke-linejoin="round"/>
<path d="M18.4267 14.0933V16.7999C18.4267 17.6977 16.7289 18.4266 14.6356 18.4266C12.5423 18.4266 10.8445 17.6977 10.8445 16.7999V14.0933" stroke="white" stroke-linecap="round" stroke-linejoin="round"/>
<path d="M9.22228 15.7022C7.38672 15.591 5.97339 14.911 5.97339 14.0933V11.3866" stroke="white" stroke-linecap="round" stroke-linejoin="round"/>
</svg>
