<svg width="20" height="20" viewBox="0 0 20 20" fill="none" xmlns="http://www.w3.org/2000/svg">
<path d="M3.59966 4.10429C3.59966 1.83908 5.43874 0 7.70395 0C9.96916 0 11.8082 1.83908 11.8082 4.10429C11.8082 6.3695 9.96916 8.20858 7.70395 8.20858C5.43874 8.20858 3.59966 6.3695 3.59966 4.10429ZM9.64957 17.9479C9.08326 16.9947 9.08326 15.8116 9.64957 14.8584C10.4345 13.4903 11.6288 12.4026 13.0642 11.7466C13.2268 11.6905 13.3109 11.5167 13.2548 11.3541C13.2324 11.2924 13.1932 11.2363 13.1371 11.2027C12.1334 10.5467 10.9504 10.2159 9.74488 10.2551H5.64059C1.47463 10.2551 0 13.2997 0 15.9181C0 18.2562 1.23914 19.4898 3.58845 19.4898H10.143C10.3112 19.4898 10.4514 19.3496 10.4514 19.1814C10.4458 19.0973 10.4065 19.0188 10.3504 18.9571C10.0925 18.6319 9.85702 18.3011 9.64957 17.9479ZM19.7925 17.1685C18.9235 18.8225 17.247 19.8991 15.3799 20C13.5128 19.8991 11.8363 18.8225 10.9672 17.1685C10.6925 16.7031 10.6925 16.12 10.9672 15.649C11.8363 13.995 13.5128 12.9184 15.3799 12.8175C17.247 12.9184 18.9235 13.995 19.7925 15.649C20.0729 16.12 20.0729 16.6975 19.7925 17.1685ZM16.6639 16.4116C16.6639 15.7051 16.092 15.1276 15.3799 15.1276H15.3687C14.6622 15.1332 14.0903 15.7107 14.0959 16.4172C14.1015 17.1236 14.679 17.6955 15.3855 17.6899C16.0976 17.6843 16.6639 17.1124 16.6639 16.4116Z" fill="#ACBBF3"/>
</svg>
