<svg width="49" height="48" viewBox="0 0 49 48" fill="none" xmlns="http://www.w3.org/2000/svg">
<rect x="1.5" y="1" width="46" height="46" rx="23" fill="white" stroke="#E3E7F7" stroke-width="2"/>
<path d="M28.1466 17.569V12H19.1456C17.7236 12 16.5717 13.1519 16.5717 14.574V33.426C16.5717 34.8481 17.7236 36 19.1456 36H31.1417C32.5637 36 33.7156 34.8481 33.7156 33.426V17.569H28.1466ZM26.8596 27.6346L25.517 29.994C25.3979 30.2006 25.1357 30.2721 24.9292 30.1529C24.8656 30.1132 24.802 30.0576 24.7703 29.994L23.4277 27.6346C23.3085 27.428 23.38 27.1658 23.5866 27.0467C23.6501 27.007 23.7216 26.9911 23.801 26.9911H24.7147V18.856C24.7147 18.6177 24.9053 18.427 25.1437 18.427C25.382 18.427 25.5726 18.6177 25.5726 18.856V26.999H26.5101C26.7484 27.007 26.9311 27.2135 26.9152 27.4439C26.9152 27.5074 26.8914 27.5789 26.8596 27.6346Z" fill="#224E90"/>
<path d="M33.7157 16.711H29.0046V12L33.7157 16.711Z" fill="#224E90"/>
</svg>
