<svg width="49" height="48" viewBox="0 0 49 48" fill="none" xmlns="http://www.w3.org/2000/svg">
<rect x="1.5" y="1" width="46" height="46" rx="23" fill="white" stroke="#E3E7F7" stroke-width="2"/>
<path d="M30.25 13H19.25C17.7306 13 16.5 14.2306 16.5 15.75V28.125H13.75C12.2306 28.125 11 29.3556 11 30.875V32.25C11 33.7694 12.2306 35 13.75 35H30.25C31.7694 35 33 33.7694 33 32.25V15.75C33 14.2306 31.7694 13 30.25 13ZM16.5 32.25C16.5 33.0097 15.8847 33.625 15.125 33.625H13.75C12.9903 33.625 12.375 33.0097 12.375 32.25V30.875C12.375 30.1153 12.9903 29.5 13.75 29.5H16.5V32.25ZM23.375 20.3961V24.6844C23.375 25.0611 23.0674 25.375 22.6844 25.375C22.3014 25.375 21.9937 25.0674 21.9937 24.6844V20.3961L21.2215 21.1684C20.9515 21.4384 20.512 21.4384 20.242 21.1684C19.972 20.8984 19.972 20.4589 20.242 20.1889L22.1946 18.2489C22.4458 17.9852 22.8602 17.9726 23.1301 18.2175C23.1427 18.23 23.149 18.2363 23.1615 18.2489L25.1142 20.1889C25.3841 20.4589 25.3841 20.8984 25.1142 21.1684C24.8442 21.4384 24.4047 21.4384 24.1347 21.1684L23.375 20.3961ZM29.2454 27.8111L27.2928 29.7511C27.0417 30.0148 26.6273 30.0274 26.3573 29.7825C26.3447 29.77 26.3385 29.7637 26.3259 29.7511L24.3733 27.8111C24.1033 27.5411 24.1033 27.1016 24.3733 26.8316C24.6433 26.5616 25.0828 26.5616 25.3527 26.8316L26.125 27.6039V23.3156C26.125 22.9389 26.4326 22.625 26.8156 22.625C27.1986 22.625 27.5063 22.9326 27.5063 23.3156V27.6039L28.2785 26.8316C28.5485 26.5616 28.988 26.5616 29.258 26.8316C29.528 27.1016 29.5154 27.5411 29.2454 27.8111Z" fill="#234283"/>
</svg>
