<svg width="48" height="48" viewBox="0 0 48 48" fill="none" xmlns="http://www.w3.org/2000/svg">
<rect x="1" y="1" width="46" height="46" rx="23" fill="white" stroke="#E3E7F7" stroke-width="2"/>
<path d="M25.8172 20.6748C25.8172 20.4225 25.5492 20.1229 25.1155 19.9337V21.4239C25.5492 21.2189 25.8172 20.9429 25.8172 20.6748Z" fill="#234687"/>
<path d="M23.0023 15.9044C22.5686 16.1016 22.3005 16.3854 22.3005 16.6456C22.3005 16.9058 22.5686 17.1976 23.0023 17.3868V15.9044Z" fill="#234687"/>
<path d="M16.9151 21.6289L17.1517 22.1099C17.1517 22.2361 17.2936 22.378 17.3803 22.5041C17.885 23.4188 18.5867 24.2231 19.4225 24.8539C22.1823 26.8803 25.9276 26.8803 28.6873 24.8539C29.5231 24.2388 30.217 23.4503 30.7295 22.5515C30.8399 22.378 30.9424 22.1966 31.0213 21.9995L31.2342 21.5501C31.6048 20.6591 31.794 19.705 31.794 18.7351C31.794 14.4615 28.3325 11 24.0589 11C19.7852 11 16.3237 14.4615 16.3237 18.7351C16.3237 19.6971 16.513 20.6591 16.8836 21.5501C16.8914 21.5737 16.8993 21.6053 16.9151 21.6289ZM20.1952 16.6535C20.3135 15.1317 21.4884 13.8938 23.0102 13.7045C23.0102 13.1211 23.4833 12.648 24.0668 12.648C24.6502 12.648 25.1233 13.1211 25.1233 13.7045C26.6372 13.9017 27.8121 15.1317 27.9383 16.6535C27.9383 17.237 27.4652 17.7101 26.8817 17.7101C26.2982 17.7101 25.8251 17.237 25.8251 16.6535C25.8251 16.3854 25.557 16.1016 25.1233 15.9123V17.7259C26.6372 17.923 27.8121 19.153 27.9383 20.6748C27.82 22.1966 26.6451 23.4346 25.1233 23.6238C25.1233 24.2073 24.6502 24.6804 24.0668 24.6804C23.4833 24.6804 23.0102 24.2073 23.0102 23.6238C21.4963 23.4267 20.3214 22.1966 20.1952 20.6748C20.1952 20.0913 20.6683 19.6183 21.2518 19.6183C21.8353 19.6183 22.3084 20.0913 22.3084 20.6748C22.3084 20.9429 22.5765 21.2268 23.0102 21.416V19.6025C21.4884 19.4054 20.3135 18.1753 20.1952 16.6535Z" fill="#234687"/>
<path d="M36.7142 20.7695H34.4118C34.2699 21.4397 34.0649 22.0941 33.7968 22.7249L33.5602 23.2138C33.442 23.4661 33.3079 23.7184 33.166 23.955C32.4563 25.1771 31.4944 26.2495 30.3511 27.0932C30.1855 27.2193 30.0199 27.3376 29.8464 27.448H31.8019C32.3854 27.448 32.8585 27.9211 32.8585 28.5046C32.8585 29.0881 32.3854 29.5612 31.8019 29.5612H16.3237C15.7402 29.5612 15.2671 29.0881 15.2671 28.5046C15.2671 27.9211 15.7402 27.448 16.3237 27.448H18.224L17.7194 27.0932C16.5761 26.2416 15.6141 25.1535 14.9044 23.9155L14.6206 23.4109L14.3131 22.8038C14.0529 22.1414 13.8557 21.4633 13.7217 20.7616H11.4035C10.6308 20.7616 10 21.3924 10 22.1651V34.8204C10 35.5932 10.6308 36.224 11.4035 36.224H36.7063C37.4791 36.224 38.1099 35.5932 38.1099 34.8204V22.173C38.1177 21.4002 37.4869 20.7695 36.7142 20.7695Z" fill="#234687"/>
</svg>
