<svg width="49" height="48" viewBox="0 0 49 48" fill="none" xmlns="http://www.w3.org/2000/svg">
<rect x="1.5" y="1" width="46" height="46" rx="23" fill="white" stroke="#E3E7F7" stroke-width="2"/>
<path d="M27.2045 20.0958V17.7576C27.2045 16.1947 25.9893 14.9193 24.5 14.9193C23.0107 14.9193 21.7955 16.1947 21.7955 17.7576V20.0958H19.9666V17.7576C19.9666 15.1319 21.998 13 24.5 13C27.002 13 29.0334 15.1319 29.0334 17.7576V20.0958H27.2045ZM32 22.0463C32 21.8525 31.8451 21.69 31.6604 21.69H17.3396C17.1549 21.69 17 21.8525 17 22.0463V34.6437C17 34.8375 17.1549 35 17.3396 35H31.6545C31.8392 35 31.994 34.8375 31.994 34.6437V32.2555H30.6775C30.2605 32.2555 29.915 31.8991 29.915 31.4552C29.915 31.0114 30.2546 30.655 30.6775 30.655H31.994V29.1358H30.6775C30.2605 29.1358 29.915 28.7795 29.915 28.3356C29.915 27.8917 30.2546 27.5354 30.6775 27.5354H31.994V26.0224H30.6775C30.2605 26.0224 29.915 25.6661 29.915 25.2222C29.915 24.7783 30.2546 24.422 30.6775 24.422H31.994L32 22.0463ZM26.8292 30.0986C26.8471 30.7738 26.6088 31.4115 26.1561 31.9054C25.8701 32.218 25.5127 32.443 25.1255 32.5743V32.8181C25.1255 33.262 24.7859 33.6184 24.363 33.6184C23.946 33.6184 23.6005 33.262 23.6005 32.8181V32.5681C22.9988 32.3618 22.4925 31.9116 22.1886 31.2927C21.998 30.8988 22.1469 30.4174 22.5163 30.2174C22.8916 30.0173 23.3503 30.1736 23.5409 30.5612C23.7017 30.8926 24.0234 31.0989 24.3749 31.0989C24.6311 31.0989 24.8813 30.9864 25.06 30.7926C25.2268 30.6113 25.3161 30.3862 25.3042 30.1486C25.2923 29.661 24.9051 29.4359 24.0294 29.0296C23.1537 28.6232 21.9563 28.0668 21.8967 26.6039C21.867 25.9349 22.1052 25.2972 22.558 24.7971C22.8499 24.4783 23.2073 24.2469 23.6005 24.1157V23.8781C23.6005 23.4342 23.94 23.0779 24.363 23.0779C24.78 23.0779 25.1255 23.4342 25.1255 23.8781V24.1282C25.7272 24.3345 26.2395 24.7846 26.5433 25.4035C26.7339 25.7974 26.585 26.2788 26.2156 26.4788C25.8403 26.6789 25.3817 26.5226 25.191 26.135C25.0302 25.8036 24.7085 25.5973 24.357 25.5973C24.0949 25.5973 23.8447 25.7099 23.66 25.9099C23.4992 26.085 23.4158 26.31 23.4218 26.5413C23.4396 26.9727 23.809 27.1853 24.6489 27.5791C25.5485 27.9918 26.7816 28.5607 26.8292 30.0986Z" fill="#215193"/>
</svg>
